<?xml version="1.0" encoding="UTF-8" standalone="no"?>
<!DOCTYPE svg PUBLIC "-//W3C//DTD SVG 1.1//EN"
 "http://www.w3.org/Graphics/SVG/1.1/DTD/svg11.dtd">
<!-- Generated by graphviz version 2.43.0 (0)
 -->
<!-- Title: %3 Pages: 1 -->
<svg width="1052pt" height="188pt"
 viewBox="0.00 0.00 1052.09 188.00" xmlns="http://www.w3.org/2000/svg" xmlns:xlink="http://www.w3.org/1999/xlink">
<g id="graph0" class="graph" transform="scale(1 1) rotate(0) translate(4 184)">
<title>%3</title>
<polygon fill="white" stroke="transparent" points="-4,4 -4,-184 1048.09,-184 1048.09,4 -4,4"/>
<!-- Boss -->
<g id="node1" class="node">
<title>Boss</title>
<ellipse fill="none" stroke="black" cx="522.05" cy="-162" rx="32.49" ry="18"/>
<text text-anchor="middle" x="522.05" y="-158.3" font-family="Times,serif" font-size="14.00">Boss</text>
</g>
<!-- Manager1 -->
<g id="node2" class="node">
<title>Manager1</title>
<ellipse fill="none" stroke="black" cx="227.05" cy="-90" rx="57.69" ry="18"/>
<text text-anchor="middle" x="227.05" y="-86.3" font-family="Times,serif" font-size="14.00">Manager1</text>
</g>
<!-- Boss&#45;&gt;Manager1 -->
<g id="edge1" class="edge">
<title>Boss&#45;&gt;Manager1</title>
<path fill="none" stroke="black" d="M492.68,-154.03C443.54,-142.37 343.89,-118.73 281.59,-103.94"/>
<polygon fill="black" stroke="black" points="282.09,-100.46 271.55,-101.56 280.47,-107.27 282.09,-100.46"/>
</g>
<!-- Manager2 -->
<g id="node3" class="node">
<title>Manager2</title>
<ellipse fill="none" stroke="black" cx="522.05" cy="-90" rx="57.69" ry="18"/>
<text text-anchor="middle" x="522.05" y="-86.3" font-family="Times,serif" font-size="14.00">Manager2</text>
</g>
<!-- Boss&#45;&gt;Manager2 -->
<g id="edge2" class="edge">
<title>Boss&#45;&gt;Manager2</title>
<path fill="none" stroke="black" d="M522.05,-143.7C522.05,-135.98 522.05,-126.71 522.05,-118.11"/>
<polygon fill="black" stroke="black" points="525.55,-118.1 522.05,-108.1 518.55,-118.1 525.55,-118.1"/>
</g>
<!-- Manager3 -->
<g id="node4" class="node">
<title>Manager3</title>
<ellipse fill="none" stroke="black" cx="817.05" cy="-90" rx="57.69" ry="18"/>
<text text-anchor="middle" x="817.05" y="-86.3" font-family="Times,serif" font-size="14.00">Manager3</text>
</g>
<!-- Boss&#45;&gt;Manager3 -->
<g id="edge3" class="edge">
<title>Boss&#45;&gt;Manager3</title>
<path fill="none" stroke="black" d="M551.41,-154.03C600.56,-142.37 700.2,-118.73 762.5,-103.94"/>
<polygon fill="black" stroke="black" points="763.62,-107.27 772.54,-101.56 762,-100.46 763.62,-107.27"/>
</g>
<!-- Worker1 -->
<g id="node5" class="node">
<title>Worker1</title>
<ellipse fill="none" stroke="black" cx="50.05" cy="-18" rx="50.09" ry="18"/>
<text text-anchor="middle" x="50.05" y="-14.3" font-family="Times,serif" font-size="14.00">Worker1</text>
</g>
<!-- Manager1&#45;&gt;Worker1 -->
<g id="edge4" class="edge">
<title>Manager1&#45;&gt;Worker1</title>
<path fill="none" stroke="black" d="M192.5,-75.34C163.72,-63.96 122.64,-47.71 91.98,-35.58"/>
<polygon fill="black" stroke="black" points="93,-32.23 82.42,-31.8 90.43,-38.73 93,-32.23"/>
</g>
<!-- Worker2 -->
<g id="node6" class="node">
<title>Worker2</title>
<ellipse fill="none" stroke="black" cx="168.05" cy="-18" rx="50.09" ry="18"/>
<text text-anchor="middle" x="168.05" y="-14.3" font-family="Times,serif" font-size="14.00">Worker2</text>
</g>
<!-- Manager1&#45;&gt;Worker2 -->
<g id="edge5" class="edge">
<title>Manager1&#45;&gt;Worker2</title>
<path fill="none" stroke="black" d="M213.06,-72.41C205.72,-63.69 196.57,-52.85 188.45,-43.21"/>
<polygon fill="black" stroke="black" points="191.05,-40.86 181.93,-35.47 185.7,-45.37 191.05,-40.86"/>
</g>
<!-- Worker3 -->
<g id="node7" class="node">
<title>Worker3</title>
<ellipse fill="none" stroke="black" cx="286.05" cy="-18" rx="50.09" ry="18"/>
<text text-anchor="middle" x="286.05" y="-14.3" font-family="Times,serif" font-size="14.00">Worker3</text>
</g>
<!-- Manager1&#45;&gt;Worker3 -->
<g id="edge6" class="edge">
<title>Manager1&#45;&gt;Worker3</title>
<path fill="none" stroke="black" d="M241.03,-72.41C248.38,-63.69 257.52,-52.85 265.64,-43.21"/>
<polygon fill="black" stroke="black" points="268.4,-45.37 272.16,-35.47 263.04,-40.86 268.4,-45.37"/>
</g>
<!-- Worker4 -->
<g id="node8" class="node">
<title>Worker4</title>
<ellipse fill="none" stroke="black" cx="404.05" cy="-18" rx="50.09" ry="18"/>
<text text-anchor="middle" x="404.05" y="-14.3" font-family="Times,serif" font-size="14.00">Worker4</text>
</g>
<!-- Manager2&#45;&gt;Worker4 -->
<g id="edge7" class="edge">
<title>Manager2&#45;&gt;Worker4</title>
<path fill="none" stroke="black" d="M496.44,-73.81C479.2,-63.58 456.28,-49.99 437.59,-38.9"/>
<polygon fill="black" stroke="black" points="439.18,-35.77 428.79,-33.68 435.61,-41.79 439.18,-35.77"/>
</g>
<!-- Worker5 -->
<g id="node9" class="node">
<title>Worker5</title>
<ellipse fill="none" stroke="black" cx="522.05" cy="-18" rx="50.09" ry="18"/>
<text text-anchor="middle" x="522.05" y="-14.3" font-family="Times,serif" font-size="14.00">Worker5</text>
</g>
<!-- Manager2&#45;&gt;Worker5 -->
<g id="edge8" class="edge">
<title>Manager2&#45;&gt;Worker5</title>
<path fill="none" stroke="black" d="M522.05,-71.7C522.05,-63.98 522.05,-54.71 522.05,-46.11"/>
<polygon fill="black" stroke="black" points="525.55,-46.1 522.05,-36.1 518.55,-46.1 525.55,-46.1"/>
</g>
<!-- Worker6 -->
<g id="node10" class="node">
<title>Worker6</title>
<ellipse fill="none" stroke="black" cx="640.05" cy="-18" rx="50.09" ry="18"/>
<text text-anchor="middle" x="640.05" y="-14.3" font-family="Times,serif" font-size="14.00">Worker6</text>
</g>
<!-- Manager2&#45;&gt;Worker6 -->
<g id="edge9" class="edge">
<title>Manager2&#45;&gt;Worker6</title>
<path fill="none" stroke="black" d="M547.65,-73.81C564.89,-63.58 587.81,-49.99 606.5,-38.9"/>
<polygon fill="black" stroke="black" points="608.49,-41.79 615.3,-33.68 604.91,-35.77 608.49,-41.79"/>
</g>
<!-- Worker7 -->
<g id="node11" class="node">
<title>Worker7</title>
<ellipse fill="none" stroke="black" cx="758.05" cy="-18" rx="50.09" ry="18"/>
<text text-anchor="middle" x="758.05" y="-14.3" font-family="Times,serif" font-size="14.00">Worker7</text>
</g>
<!-- Manager3&#45;&gt;Worker7 -->
<g id="edge10" class="edge">
<title>Manager3&#45;&gt;Worker7</title>
<path fill="none" stroke="black" d="M803.06,-72.41C795.72,-63.69 786.57,-52.85 778.45,-43.21"/>
<polygon fill="black" stroke="black" points="781.05,-40.86 771.93,-35.47 775.7,-45.37 781.05,-40.86"/>
</g>
<!-- Worker8 -->
<g id="node12" class="node">
<title>Worker8</title>
<ellipse fill="none" stroke="black" cx="876.05" cy="-18" rx="50.09" ry="18"/>
<text text-anchor="middle" x="876.05" y="-14.3" font-family="Times,serif" font-size="14.00">Worker8</text>
</g>
<!-- Manager3&#45;&gt;Worker8 -->
<g id="edge11" class="edge">
<title>Manager3&#45;&gt;Worker8</title>
<path fill="none" stroke="black" d="M831.03,-72.41C838.38,-63.69 847.52,-52.85 855.64,-43.21"/>
<polygon fill="black" stroke="black" points="858.4,-45.37 862.16,-35.47 853.04,-40.86 858.4,-45.37"/>
</g>
<!-- Worker9 -->
<g id="node13" class="node">
<title>Worker9</title>
<ellipse fill="none" stroke="black" cx="994.05" cy="-18" rx="50.09" ry="18"/>
<text text-anchor="middle" x="994.05" y="-14.3" font-family="Times,serif" font-size="14.00">Worker9</text>
</g>
<!-- Manager3&#45;&gt;Worker9 -->
<g id="edge12" class="edge">
<title>Manager3&#45;&gt;Worker9</title>
<path fill="none" stroke="black" d="M851.59,-75.34C880.37,-63.96 921.46,-47.71 952.11,-35.58"/>
<polygon fill="black" stroke="black" points="953.66,-38.73 961.67,-31.8 951.09,-32.23 953.66,-38.73"/>
</g>
</g>
</svg>
